<svg width="30" height="30" viewBox="0 0 30 30" fill="none" xmlns="http://www.w3.org/2000/svg">
<path d="M25.3124 15.7125V14.2781L27.1124 12.7031C27.4442 12.4106 27.662 12.0103 27.7272 11.5728C27.7924 11.1354 27.7008 10.6889 27.4687 10.3125L25.2562 6.56245C25.0918 6.2777 24.8554 6.04119 24.5707 5.87664C24.286 5.71209 23.9631 5.62529 23.6343 5.62495C23.4305 5.62339 23.2279 5.65506 23.0343 5.7187L20.7562 6.48745C20.3629 6.22609 19.9526 5.99119 19.5281 5.78433L19.0499 3.42183C18.9642 2.99021 18.7294 2.60249 18.3866 2.32655C18.0438 2.05061 17.6149 1.90402 17.1749 1.91245H12.7874C12.3475 1.90402 11.9185 2.05061 11.5758 2.32655C11.233 2.60249 10.9982 2.99021 10.9124 3.42183L10.4343 5.78433C10.0067 5.99114 9.59334 6.22603 9.19681 6.48745L6.96556 5.6812C6.7699 5.63023 6.56728 5.61123 6.36556 5.62495C6.03675 5.62529 5.71382 5.71209 5.42915 5.87664C5.14448 6.04119 4.90808 6.2777 4.74368 6.56245L2.53118 10.3125C2.31236 10.6884 2.23104 11.1287 2.30117 11.558C2.37129 11.9873 2.58848 12.3788 2.91556 12.6656L4.68743 14.2875V15.7218L2.91556 17.2968C2.57925 17.5856 2.35611 17.9841 2.28574 18.4218C2.21538 18.8594 2.30233 19.3078 2.53118 19.6875L4.74368 23.4375C4.90808 23.7222 5.14448 23.9587 5.42915 24.1233C5.71382 24.2878 6.03675 24.3746 6.36556 24.375C6.56932 24.3765 6.77198 24.3448 6.96556 24.2812L9.24368 23.5125C9.637 23.7738 10.0473 24.0087 10.4718 24.2156L10.9499 26.5781C11.0357 27.0097 11.2705 27.3974 11.6133 27.6734C11.956 27.9493 12.385 28.0959 12.8249 28.0875H17.2499C17.6899 28.0959 18.1188 27.9493 18.4616 27.6734C18.8044 27.3974 19.0392 27.0097 19.1249 26.5781L19.6031 24.2156C20.0306 24.0088 20.444 23.7739 20.8406 23.5125L23.1093 24.2812C23.3029 24.3448 23.5055 24.3765 23.7093 24.375C24.0381 24.3746 24.361 24.2878 24.6457 24.1233C24.9304 23.9587 25.1668 23.7222 25.3312 23.4375L27.4687 19.6875C27.6875 19.3115 27.7688 18.8712 27.6987 18.4419C27.6286 18.0126 27.4114 17.6211 27.0843 17.3343L25.3124 15.7125ZM23.6343 22.5L20.4187 21.4125C19.6659 22.0501 18.8056 22.5485 17.8781 22.8843L17.2124 26.25H12.7874L12.1218 22.9218C11.2016 22.5764 10.3459 22.0789 9.59056 21.45L6.36556 22.5L4.15306 18.75L6.70306 16.5C6.52971 15.5295 6.52971 14.536 6.70306 13.5656L4.15306 11.25L6.36556 7.49995L9.58118 8.58745C10.3339 7.94985 11.1942 7.45144 12.1218 7.11558L12.7874 3.74995H17.2124L17.8781 7.07808C18.7983 7.42348 19.6539 7.92103 20.4093 8.54995L23.6343 7.49995L25.8468 11.25L23.2968 13.5C23.4702 14.4704 23.4702 15.4639 23.2968 16.4343L25.8468 18.75L23.6343 22.5Z" fill="white"/>
<path d="M15 20.625C13.8875 20.625 12.7999 20.2951 11.8749 19.677C10.9499 19.0589 10.2289 18.1804 9.80318 17.1526C9.37744 16.1248 9.26604 14.9938 9.48309 13.9026C9.70013 12.8115 10.2359 11.8092 11.0225 11.0225C11.8092 10.2359 12.8115 9.70013 13.9026 9.48309C14.9938 9.26604 16.1248 9.37744 17.1526 9.80318C18.1804 10.2289 19.0589 10.9499 19.677 11.8749C20.2951 12.7999 20.625 13.8875 20.625 15C20.6325 15.7408 20.4922 16.4756 20.2121 17.1615C19.9321 17.8473 19.5181 18.4704 18.9942 18.9942C18.4704 19.5181 17.8473 19.9321 17.1615 20.2121C16.4756 20.4922 15.7408 20.6325 15 20.625V20.625ZM15 11.25C14.5044 11.2385 14.0116 11.3276 13.5514 11.5119C13.0912 11.6963 12.6732 11.9721 12.3226 12.3226C11.9721 12.6732 11.6963 13.0912 11.5119 13.5514C11.3276 14.0116 11.2385 14.5044 11.25 15C11.2385 15.4956 11.3276 15.9884 11.5119 16.4486C11.6963 16.9088 11.9721 17.3268 12.3226 17.6774C12.6732 18.0279 13.0912 18.3037 13.5514 18.4881C14.0116 18.6724 14.5044 18.7615 15 18.75C15.4956 18.7615 15.9884 18.6724 16.4486 18.4881C16.9088 18.3037 17.3268 18.0279 17.6774 17.6774C18.0279 17.3268 18.3037 16.9088 18.4881 16.4486C18.6724 15.9884 18.7615 15.4956 18.75 15C18.7615 14.5044 18.6724 14.0116 18.4881 13.5514C18.3037 13.0912 18.0279 12.6732 17.6774 12.3226C17.3268 11.9721 16.9088 11.6963 16.4486 11.5119C15.9884 11.3276 15.4956 11.2385 15 11.25Z" fill="white"/>
</svg>
